<svg width="116" height="40" viewBox="0 0 116 40" fill="none" xmlns="http://www.w3.org/2000/svg">
<g clip-path="url(#clip0_106_39)">
<path d="M33.069 32.6316C33.7111 32.6316 34.2428 32.8491 34.6691 33.2787C35.106 33.7083 35.3165 34.244 35.3165 34.8805C35.3165 35.5169 35.106 36.042 34.6691 36.4823C34.2428 36.9119 33.7111 37.1293 33.069 37.1293H31.6847V39.4737H30.5688V32.6369H33.069V32.6316ZM33.069 36.0686C33.7269 36.0686 34.2007 35.57 34.2007 34.8752C34.2007 34.1803 33.7269 33.6818 33.069 33.6818H31.6847V36.0633H33.069V36.0686Z" fill="#103559"/>
<path d="M36.9959 37.5163C37.1573 38.2014 37.7861 38.5782 38.6375 38.5782C39.2218 38.5782 39.6614 38.3874 39.9618 38.0204L40.8744 38.4901C40.3736 39.1459 39.6224 39.4737 38.6319 39.4737C37.8028 39.4737 37.1239 39.2486 36.612 38.8082C36.1 38.358 35.8441 37.7904 35.8441 37.1053C35.8441 36.4202 36.1 35.8722 36.6008 35.422C37.1017 34.962 37.7583 34.7369 38.5484 34.7369C39.2941 34.7369 39.9118 34.9718 40.3903 35.4317C40.8744 35.8917 41.1193 36.4594 41.1193 37.1151C41.1193 37.213 41.1082 37.35 41.0803 37.5212H37.0015L36.9959 37.5163ZM40.0008 36.7236C39.845 35.9945 39.2607 35.6128 38.5373 35.6128C37.7193 35.6128 37.1462 36.0385 36.9904 36.7236H40.0008Z" fill="#103559"/>
<path d="M44.2844 35.5461H43.0736V37.897C43.0736 38.5247 43.4825 38.514 44.2844 38.4768V39.4289C42.67 39.6257 42.0168 39.1842 42.0168 37.9024V35.5514H41.1193V34.5302H42.0168V33.4717L43.0736 33.1579V34.5302H44.2844V35.5514V35.5461Z" fill="#103559"/>
<path d="M46.8867 36.6816C47.6 36.8334 48.5244 37.1224 48.5043 38.0874C48.5043 38.5185 48.3285 38.8614 47.9869 39.1063C47.6453 39.3513 47.2182 39.4737 46.7008 39.4737C45.7865 39.4737 45.1083 39.0769 44.812 38.4205L45.671 37.9356C45.8267 38.3667 46.1683 38.5871 46.6958 38.5871C47.2233 38.5871 47.4845 38.4156 47.4845 38.0825C47.4845 37.7935 47.0977 37.6221 46.6054 37.5045C45.9121 37.3331 44.9777 37.0637 44.9978 36.1134C44.9978 35.697 45.1536 35.3639 45.4801 35.1141C45.8016 34.8593 46.2135 34.7369 46.6908 34.7369C47.4594 34.7369 48.0773 35.0896 48.4038 35.6774L47.5599 36.1378C47.4041 35.795 47.1077 35.6235 46.6908 35.6235C46.314 35.6235 46.0176 35.7852 46.0176 36.1036C46.0176 36.4024 46.4044 36.5542 46.8867 36.6914V36.6816Z" fill="#103559"/>
<path d="M54.8349 33.6377C54.0037 33.57 53.5996 33.8876 53.5996 34.5852V34.6789H54.8349V35.6785H53.5996V39.4737H52.4667V35.6785H51.6697V34.6789H52.4667V34.5852C52.4667 33.2733 53.2865 32.5548 54.8349 32.6381V33.6377Z" fill="#103559"/>
<path d="M56.1331 38.7886C55.6229 38.3287 55.3624 37.7708 55.3624 37.1053C55.3624 36.4398 55.6229 35.8819 56.1331 35.422C56.6432 34.962 57.2728 34.7369 58 34.7369C58.7273 34.7369 59.3568 34.962 59.867 35.422C60.3771 35.8819 60.6376 36.4398 60.6376 37.1053C60.6376 37.7708 60.3771 38.3287 59.867 38.7886C59.3568 39.2486 58.7381 39.4737 58 39.4737C57.2619 39.4737 56.6432 39.2486 56.1331 38.7886ZM58 38.5293C58.4396 38.5293 58.8087 38.3923 59.1072 38.1231C59.4057 37.854 59.5576 37.5115 59.5576 37.1053C59.5576 36.6991 59.4057 36.3566 59.1072 36.0875C58.8087 35.8183 58.4396 35.6813 58 35.6813C57.5604 35.6813 57.1914 35.8183 56.8929 36.0875C56.5944 36.3566 56.4424 36.6991 56.4424 37.1053C56.4424 37.5115 56.5944 37.854 56.8929 38.1231C57.1914 38.3923 57.5604 38.5293 58 38.5293Z" fill="#103559"/>
<path d="M62.2519 35.6013C62.5249 35.025 63.0492 34.7369 63.8028 34.7369V35.8238C63.3932 35.7934 63.0273 35.8895 62.7161 36.1018C62.4048 36.3091 62.2519 36.6528 62.2519 37.128V39.4737H61.1652V34.8178H62.2519V35.6013Z" fill="#103559"/>
<path d="M71.7156 37.5203C71.7156 38.0777 71.5285 38.5448 71.1493 38.9163C70.7701 39.2879 70.31 39.4737 69.7639 39.4737H66.9679V32.6316H69.5566C70.0875 32.6316 70.5426 32.8174 70.9066 33.1783C71.2808 33.5393 71.4628 33.9905 71.4628 34.5266C71.4628 35.1211 71.2403 35.5829 70.8004 35.9226C71.3667 36.2358 71.7105 36.8037 71.7105 37.515L71.7156 37.5203ZM68.0398 33.6879V35.4873H69.5566C70.0319 35.4873 70.396 35.0945 70.396 34.5903C70.396 34.086 70.0319 33.6932 69.5566 33.6932H68.0398V33.6879ZM69.7639 38.4174C70.2594 38.4174 70.6488 37.9981 70.6488 37.4619C70.6488 36.9258 70.2594 36.5065 69.7639 36.5065H68.0398V38.4227H69.7639V38.4174Z" fill="#103559"/>
<path d="M73.9213 37.5163C74.0825 38.2014 74.7107 38.5782 75.5611 38.5782C76.1448 38.5782 76.5839 38.3874 76.8841 38.0204L77.7957 38.4901C77.2955 39.1459 76.545 39.4737 75.5556 39.4737C74.7273 39.4737 74.0492 39.2486 73.5378 38.8082C73.0264 38.358 72.7707 37.7904 72.7707 37.1053C72.7707 36.4202 73.0264 35.8722 73.5266 35.422C74.0269 34.962 74.6829 34.7369 75.4722 34.7369C76.2171 34.7369 76.8341 34.9718 77.3177 35.4317C77.8013 35.8917 78.0459 36.4594 78.0459 37.1151C78.0459 37.213 78.0348 37.35 78.007 37.5212H73.9324L73.9213 37.5163ZM76.923 36.7236C76.7674 35.9945 76.1837 35.6128 75.4611 35.6128C74.644 35.6128 74.0714 36.0385 73.9158 36.7236H76.9286H76.923Z" fill="#103559"/>
<path d="M80.1206 36.6816C80.834 36.8334 81.7583 37.1224 81.7382 38.0874C81.7382 38.5185 81.5624 38.8614 81.2208 39.1063C80.8792 39.3513 80.4522 39.4737 79.9348 39.4737C79.0205 39.4737 78.3423 39.0769 78.0459 38.4205L78.9049 37.9356C79.0607 38.3667 79.4023 38.5871 79.9297 38.5871C80.4572 38.5871 80.7184 38.4156 80.7184 38.0825C80.7184 37.7935 80.3316 37.6221 79.8393 37.5045C79.1461 37.3331 78.2117 37.0637 78.2318 36.1134C78.2318 35.697 78.3875 35.3639 78.714 35.1141C79.0355 34.8593 79.4475 34.7369 79.9247 34.7369C80.6933 34.7369 81.3112 35.0896 81.6378 35.6774L80.7938 36.1378C80.6381 35.795 80.3417 35.6235 79.9247 35.6235C79.5479 35.6235 79.2516 35.7852 79.2516 36.1036C79.2516 36.4024 79.6384 36.5542 80.1206 36.6914V36.6816Z" fill="#103559"/>
<path d="M85.4312 35.5461H84.2224V37.897C84.2224 38.5247 84.6306 38.514 85.4312 38.4768V39.4289C83.8195 39.6257 83.1673 39.1842 83.1673 37.9024V35.5514H82.2661V34.5302H83.1673V33.4717L84.2224 33.1579V34.5302H85.4312V35.5514V35.5461Z" fill="#103559"/>
<path d="M25.4886 3.21454C25.3505 1.85328 24.8036 1.57892 23.7416 1.57892H19.2175C18.2246 1.57892 17.9856 1.74776 17.6086 2.83993L14.2156 13.8724L10.8226 2.83993C10.4455 1.74776 10.2066 1.57892 9.21364 1.57892H4.68428C3.62229 1.57892 3.07537 1.85328 2.93731 3.21454L0.537222 24.8733C0.436334 25.6542 0.505363 25.9655 1.19034 26.0657L6.36752 26.8149C7.15339 26.9152 7.32862 26.7463 7.42951 26.166L8.56052 16.0198L10.9925 25.5223C11.2314 26.3031 11.5394 26.6144 12.3306 26.6144H16.1006C16.8865 26.6144 17.1998 26.3084 17.4387 25.5223L19.8388 16.0198L21.0017 26.166C21.1026 26.7463 21.2778 26.9152 22.0637 26.8149L27.2409 26.0657C27.9258 25.9655 27.9949 25.6594 27.894 24.8733L25.4886 3.21454Z" fill="#103559"/>
<path d="M37.9541 7.36841C32.1439 7.36841 28.9862 11.3508 28.9862 16.8421C28.9862 22.3334 32.1439 26.3158 37.9541 26.3158C43.7643 26.3158 46.922 22.3334 46.922 16.8421C46.922 11.3508 43.7643 7.36841 37.9541 7.36841ZM37.9541 20.1193C36.5595 20.1193 35.8121 18.8125 35.8121 16.8369C35.8121 14.8613 36.5595 13.5546 37.9541 13.5546C39.3488 13.5546 40.0961 14.8613 40.0961 16.8369C40.0961 18.8125 39.3488 20.1193 37.9541 20.1193Z" fill="#103559"/>
<path d="M59.9518 7.37893C58.7608 7.37893 49.849 7.61557 49.2693 8.43068C49.0321 8.70414 49.0321 9.07751 49.0321 9.71908L49.3062 24.5173C49.3378 25.874 49.6487 26.3158 50.8345 26.3158H54.9874C56.1784 26.3158 56.5157 25.874 56.5157 24.5173V14.2995C57.0269 14.1312 57.1956 14.0628 57.7753 14.026C58.5553 13.9945 58.9294 14.2311 59.1719 14.8727C59.3405 15.5511 59.3774 16.5713 59.3774 17.9596L59.3458 24.512C59.3458 25.8688 59.72 26.3105 60.911 26.3105H65.164C66.3551 26.3105 66.6607 25.8688 66.6924 24.512L66.9664 15.4827C66.998 13.274 66.5237 11.2389 65.4012 9.74537C64.2101 8.25188 62.4394 7.36841 59.9571 7.36841L59.9518 7.37893Z" fill="#103559"/>
<path d="M75.914 9.47369H71.6391C70.4694 9.47369 70.133 9.87707 70.133 11.2339V24.5242C70.133 25.8758 70.4694 26.3158 71.6391 26.3158H75.9812C77.1509 26.3158 77.5183 25.8758 77.5183 24.5242L77.4511 11.2339C77.4511 9.91374 77.0836 9.47369 75.914 9.47369Z" fill="#103559"/>
<path d="M74.0894 0.526306C71.5576 0.526306 70.133 2.08541 70.133 4.21052C70.133 6.33563 71.5576 7.89473 74.0894 7.89473C76.6213 7.89473 78.0459 6.33563 78.0459 4.21052C78.0459 2.08541 76.6213 0.526306 74.0894 0.526306Z" fill="#103559"/>
<path d="M92.447 7.91966H89.8174V3.34403C89.8174 1.98868 89.4693 1.57892 88.2643 1.57892H84.1833C82.973 1.57892 82.5927 2.0202 82.5927 3.34403V7.91966H80.5201C79.3794 7.91966 79.1009 8.12454 79.1009 9.1752V12.8735C79.1009 13.9242 79.3794 14.1291 80.5201 14.1291H82.5927V20.5696C82.5927 24.9089 84.9063 26.8421 89.2657 26.8421C90.5457 26.8421 91.8257 26.7423 93.0361 26.5006C93.5555 26.4008 93.6948 26.2642 93.6948 25.7546L93.5234 20.5644C93.5234 20.1231 93.2824 19.955 92.8326 20.0548C92.4523 20.1546 92.0721 20.2229 91.5526 20.2229C90.5511 20.2229 89.8227 19.8814 89.8227 18.4263V14.1186H92.4523C93.593 14.1186 93.8715 13.9137 93.8715 12.863V9.16469C93.8715 8.11403 93.593 7.90915 92.4523 7.90915L92.447 7.91966Z" fill="#103559"/>
<path d="M103.895 7.36841C98.0843 7.36841 94.9266 11.3508 94.9266 16.8421C94.9266 22.3334 98.0843 26.3158 103.895 26.3158C109.705 26.3158 112.862 22.3334 112.862 16.8421C112.862 11.3508 109.705 7.36841 103.895 7.36841ZM103.895 20.1193C102.5 20.1193 101.753 18.8125 101.753 16.8369C101.753 14.8613 102.5 13.5546 103.895 13.5546C105.289 13.5546 106.037 14.8613 106.037 16.8369C106.037 18.8125 105.289 20.1193 103.895 20.1193Z" fill="#103559"/>
<path d="M114.53 8.11043C113.921 7.67068 112.922 7.92476 112.292 8.67722C111.661 9.42969 111.645 10.3971 112.25 10.8369C112.859 11.2766 113.858 11.0226 114.488 10.2701C115.119 9.51764 115.134 8.55018 114.53 8.11043Z" fill="#103559"/>
<path d="M100.185 6.83118C100.902 6.72115 101.371 5.81473 101.233 4.80352C101.094 3.79232 100.407 3.0588 99.691 3.16882C98.9745 3.27885 98.5051 4.18527 98.6434 5.19648C98.7818 6.20769 99.4686 6.94121 100.185 6.83118Z" fill="#103559"/>
<path d="M109.469 7.7609C110.46 8.26129 111.961 7.3149 112.815 5.64513C113.669 3.97535 113.56 2.21311 112.563 1.71273C111.572 1.21234 110.071 2.15872 109.217 3.8285C108.363 5.49827 108.472 7.26051 109.469 7.7609Z" fill="#103559"/>
<path d="M104.337 6.30726C105.336 6.4344 106.305 5.12591 106.498 3.38834C106.691 1.64546 106.038 0.135674 105.034 0.0085342C104.035 -0.118606 103.066 1.18988 102.873 2.92745C102.68 4.67033 103.333 6.18012 104.337 6.30726Z" fill="#103559"/>
</g>
<defs>
<clipPath id="clip0_106_39">
<rect width="115" height="40" fill="white" transform="translate(0.5)"/>
</clipPath>
</defs>
</svg>
