<svg xmlns="http://www.w3.org/2000/svg" width="53" height="60" fill="none"><path fill="#EEEAFF" d="M0 5a5 5 0 0 1 5-5h43a5 5 0 0 1 5 5v50a5 5 0 0 1-5 5H5a5 5 0 0 1-5-5V5Z"/><path fill="#582EFF" d="M21.647 4.688c.795 0 1.44-.42 1.44-.938s-.645-.938-1.44-.938h-.014c-.795 0-1.432.42-1.432.938s.651.938 1.446.938ZM25.924 4.688h4.32c.797 0 1.44-.42 1.44-.938s-.643-.938-1.44-.938h-4.32c-.796 0-1.44.42-1.44.938s.643.938 1.44.938Z"/><path fill="#582EFF" d="M43.225.003c-.007 0-.011-.003-.019-.003H8.642C3.876 0 0 2.523 0 5.625v47.813C0 57.054 4.524 60 10.082 60h31.684c5.558 0 10.082-2.945 10.082-6.563V5.627c0-3.099-3.867-5.618-8.623-5.624ZM8.641 1.875h34.551l.014.002c3.178 0 5.761 1.682 5.761 3.75H2.88v-.002c0-2.068 2.584-3.75 5.761-3.75Zm33.125 52.5H10.082c-3.971 0-7.202-2.103-7.202-4.688v-.937h46.087v.938c0 2.584-3.23 4.687-7.2 4.687ZM2.88 7.502h46.087v39.373H2.88V7.502Zm38.886 50.623H10.082c-3.483 0-6.394-1.618-7.058-3.76 1.82 1.164 4.312 1.885 7.058 1.885h31.684c2.745 0 5.237-.72 7.057-1.884-.663 2.141-3.574 3.759-7.057 3.759Z"/><path fill="#582EFF" d="M30.245 51.563c0-1.551-1.939-2.813-4.321-2.813-2.382 0-4.32 1.262-4.32 2.813 0 1.55 1.938 2.812 4.32 2.812 2.382 0 4.32-1.262 4.32-2.813Zm-4.321.937c-.795 0-1.44-.42-1.44-.938 0-.517.645-.937 1.44-.937.795 0 1.44.42 1.44.938 0 .517-.645.937-1.44.937ZM12.214 32.807c.01 0 .019.004.029.004h27.364c1.986 0 3.6-1.05 3.6-2.344 0-1.293-1.614-2.343-3.6-2.343H12.243c-1.985 0-3.6 1.05-3.6 2.342 0 1.286 1.6 2.33 3.57 2.341Zm27.393-2.809c.396 0 .72.211.72.47 0 .257-.324.468-.72.468h-27.35l-.014-.002c-.396 0-.719-.21-.719-.468s.323-.468.719-.468h27.364ZM39.607 33.748H12.243c-1.985 0-3.6 1.051-3.6 2.343 0 1.286 1.6 2.33 3.57 2.341.01 0 .02.004.03.004h27.364c1.986 0 3.6-1.05 3.6-2.344 0-1.293-1.614-2.343-3.6-2.343Zm-27.35 2.813-.014-.002c-.396 0-.719-.21-.719-.468s.323-.468.719-.468h27.364c.396 0 .72.211.72.47 0 .257-.324.468-.72.468h-27.35ZM33.125 40.312H18.723c-.797 0-1.44.419-1.44.937 0 .519.643.938 1.44.938h14.402c.796 0 1.44-.42 1.44-.938s-.644-.937-1.44-.937ZM19.519 24.748c.007.005.016.008.023.012 1.74.929 3.963 1.488 6.384 1.488 5.558 0 10.082-2.944 10.082-6.562 0-3.618-4.524-6.563-10.082-6.563-5.558 0-10.081 2.945-10.081 6.563-.002 2.036 1.43 3.858 3.674 5.063Zm2.841-1.014c.792-.756 2.114-1.236 3.566-1.236 1.45 0 2.773.48 3.565 1.235-1.056.397-2.263.64-3.566.64-1.304 0-2.51-.243-3.565-.639Zm3.565-3.11c-.795 0-1.44-.42-1.44-.938 0-.517.645-.938 1.44-.938.795 0 1.44.42 1.44.938 0 .517-.645.938-1.44.938Zm0-5.625c3.97 0 7.2 2.102 7.2 4.687 0 1.053-.555 2.014-1.458 2.797-.586-.503-1.33-.913-2.163-1.225.47-.448.741-.99.741-1.572 0-1.55-1.938-2.813-4.32-2.813-2.382 0-4.32 1.262-4.32 2.813 0 .582.273 1.124.74 1.574-.832.312-1.576.722-2.161 1.225-.905-.784-1.46-1.746-1.46-2.799 0-2.585 3.23-4.688 7.2-4.688Z"/></svg>