<svg xmlns="http://www.w3.org/2000/svg" width="70" height="60" fill="none"><g fill="#FF814A" clip-path="url(#a)"><path fill-opacity=".12" d="M0 5a5 5 0 0 1 5-5h60a5 5 0 0 1 5 5v50a5 5 0 0 1-5 5H5a5 5 0 0 1-5-5V5Z"/><path d="M56.602 17.432c.755 0 1.367-.525 1.367-1.172V3.516c0-1.939-1.84-3.516-4.102-3.516H4.102C1.84 0 0 1.577 0 3.516v52.968C0 58.423 1.84 60 4.102 60h49.765c2.262 0 4.102-1.577 4.102-3.516v-8.633c0-.647-.612-1.172-1.367-1.172s-1.368.525-1.368 1.172v8.633c0 .646-.613 1.172-1.367 1.172H4.102c-.754 0-1.368-.526-1.368-1.172V3.516c0-.647.614-1.172 1.368-1.172h49.765c.754 0 1.367.525 1.367 1.172V16.26c0 .647.612 1.172 1.368 1.172Z"/><path d="M28.984 6.328c-6.935 0-12.578 4.837-12.578 10.781 0 3.084 1.52 5.87 3.949 7.837.046.041.094.08.147.117 2.238 1.755 5.217 2.828 8.482 2.828 3.266 0 6.244-1.073 8.483-2.828a1.29 1.29 0 0 0 .147-.117c2.43-1.967 3.949-4.753 3.949-7.837 0-5.944-5.643-10.78-12.579-10.78Zm0 19.219c-2.232 0-4.292-.641-5.946-1.72 1.202-1.826 3.444-2.968 5.946-2.968s4.745 1.142 5.946 2.969c-1.653 1.078-3.713 1.719-5.946 1.719Zm-2.187-8.906v-.762c0-1.034.981-1.875 2.187-1.875s2.188.841 2.188 1.875v.762c0 1.034-.982 1.875-2.188 1.875-1.206 0-2.187-.841-2.187-1.875Zm10.109 5.47c-1.008-1.282-2.406-2.278-4.028-2.894.644-.713 1.028-1.607 1.028-2.576v-.762c0-2.326-2.207-4.219-4.922-4.219-2.714 0-4.922 1.893-4.922 4.219v.762c0 .97.385 1.863 1.029 2.576-1.623.616-3.02 1.612-4.028 2.894-1.207-1.4-1.922-3.13-1.922-5.002 0-4.652 4.416-8.437 9.843-8.437 5.428 0 9.844 3.785 9.844 8.437 0 1.872-.715 3.601-1.922 5.002ZM36.367 51.328h-7.383c-.755 0-1.367.525-1.367 1.172 0 .647.612 1.172 1.367 1.172h7.383c.755 0 1.367-.525 1.367-1.172 0-.647-.612-1.172-1.367-1.172ZM36.367 44.766H16.953c-.755 0-1.367.524-1.367 1.172 0 .647.612 1.171 1.367 1.171h19.414c.755 0 1.367-.524 1.367-1.172 0-.647-.612-1.171-1.367-1.171ZM36.367 38.203H16.953c-.755 0-1.367.525-1.367 1.172 0 .647.612 1.172 1.367 1.172h19.414c.755 0 1.367-.525 1.367-1.172 0-.647-.612-1.172-1.367-1.172ZM12.081 31.984a1.501 1.501 0 0 0-.967-.343 1.5 1.5 0 0 0-.967.343c-.254.218-.4.52-.4.828 0 .309.145.611.4.829.256.218.607.343.966.343.362 0 .713-.125.968-.343.255-.218.401-.52.401-.828 0-.309-.146-.611-.4-.829ZM12.081 38.547a1.504 1.504 0 0 0-.967-.344c-.36 0-.711.125-.967.343-.254.218-.4.52-.4.829 0 .308.145.61.4.828.256.218.607.344.966.344.362 0 .713-.125.968-.344.255-.218.401-.52.401-.828 0-.308-.146-.61-.4-.828ZM12.081 45.109a1.504 1.504 0 0 0-.967-.343c-.36 0-.711.125-.967.343-.254.218-.4.52-.4.828 0 .309.145.611.4.829.254.218.607.343.966.343.362 0 .714-.125.968-.343.255-.218.401-.52.401-.828 0-.309-.146-.611-.4-.829ZM36.367 31.64H16.953c-.755 0-1.367.525-1.367 1.172 0 .648.612 1.172 1.367 1.172h19.414c.755 0 1.367-.524 1.367-1.172 0-.647-.612-1.171-1.367-1.171ZM67.129 15.272a6.545 6.545 0 0 0-4.357-.492c-1.482.34-2.72 1.155-3.487 2.293L42.08 42.617c-.094.14-.154.295-.175.456l-1.21 9.298c-.06.463.204.912.674 1.145.213.105.449.157.684.157.286 0 .57-.077.81-.228l8.79-5.548c.151-.096.279-.218.373-.358L69.23 21.995c1.583-2.35.64-5.366-2.102-6.723Zm-23.37 34.696.632-4.855 3.957 1.958-4.59 2.897Zm6.582-4.617-5.21-2.578 13.807-20.497 5.21 2.578L50.341 45.35Zm16.522-24.527-1.348 2-5.21-2.578 1.348-2c.402-.597 1.05-1.024 1.826-1.202a3.428 3.428 0 0 1 2.283.258c.695.344 1.193.9 1.4 1.565.209.665.102 1.36-.3 1.956Z"/></g><defs><clipPath id="a"><path fill="#fff" d="M0 5a5 5 0 0 1 5-5h60a5 5 0 0 1 5 5v50a5 5 0 0 1-5 5H5a5 5 0 0 1-5-5V5Z"/></clipPath></defs></svg>