<svg xmlns="http://www.w3.org/2000/svg" width="78" height="68" fill="none"><g clip-path="url(#a)"><path fill="#C0FEEF" d="M0 5a5 5 0 0 1 5-5h68a5 5 0 0 1 5 5v58a5 5 0 0 1-5 5H5a5 5 0 0 1-5-5V5Z"/><g fill="#31C5A1" filter="url(#b)"><path d="M28.406 43.372a1.042 1.042 0 0 0-.19-.399 1.123 1.123 0 0 0-.35-.305 1.326 1.326 0 0 0-.457-.165 1.424 1.424 0 0 0-.952.165 1.2 1.2 0 0 0-.35.305 1.01 1.01 0 0 0-.19.83c.016.071.041.14.073.207a1.106 1.106 0 0 0 .274.36 1.35 1.35 0 0 0 .65.302 1.437 1.437 0 0 0 .733-.063 1.32 1.32 0 0 0 .412-.239 1.121 1.121 0 0 0 .274-.36 1.01 1.01 0 0 0 .098-.422.962.962 0 0 0-.025-.216Z"/><path d="m64.897 43.713-.015-.033c-1.168-2.383-3.909-3.264-7.152-2.299l-8.844 2.133c-.512-1.35-1.787-2.5-3.59-3.083l-.034-.01-9.723-2.877c-.809-.912-3.343-3.245-8.09-3.245-3.316 0-6.25 1.983-7.929 4.145H7.77c-.702 0-1.27.496-1.27 1.107v13.954c0 .611.568 1.107 1.27 1.107h7.548c.7 0 1.27-.496 1.27-1.107v-.956h3.54c.7 0 1.269-.495 1.269-1.106v-.319c2.063.157 2.742.498 4.637 1.451 1.457.733 3.66 1.84 7.627 3.395l.056.02c.76.261 2.25.672 4.084.672 1.277 0 2.723-.2 4.206-.785l19.55-6.103c.035-.01.069-.023.102-.036 1.869-.75 4.653-2.862 3.238-6.025Zm-50.849 8.685H9.04v-11.74h5.01v11.74Zm4.81-2.062h-2.27v-9.678h2.27v9.678Zm41.787-2.628-19.541 6.1a1.603 1.603 0 0 0-.108.038c-2.722 1.09-5.309.437-6.323.094-3.831-1.503-5.876-2.532-7.37-3.283-2.078-1.044-3.08-1.547-5.906-1.75v-8.915c1.203-1.72 3.537-3.48 6.053-3.48 4.314 0 6.143 2.447 6.214 2.545.155.22.394.386.674.469l10.09 2.985c1.61.527 2.463 1.73 2.071 2.93-.18.554-.598 1.014-1.175 1.294a2.78 2.78 0 0 1-1.864.195l-11.374-3.142c-.67-.185-1.382.138-1.594.72-.212.583.158 1.205.827 1.39l11.394 3.147.036.01c.455.113.918.169 1.378.169.843 0 1.676-.188 2.433-.555 1.17-.568 2.015-1.5 2.381-2.622.03-.09.055-.18.078-.27l9.532-2.301c1.377-.41 3.184-.558 3.988 1.058.833 1.896-1.331 2.94-1.894 3.174ZM52.084 14.556a.98.98 0 0 0-.074-.208 1.107 1.107 0 0 0-.274-.359 1.366 1.366 0 0 0-.649-.302 1.442 1.442 0 0 0-.953.165 1.196 1.196 0 0 0-.35.306 1.084 1.084 0 0 0-.19.398.962.962 0 0 0 .073.639 1.061 1.061 0 0 0 .274.36 1.328 1.328 0 0 0 .65.302 1.438 1.438 0 0 0 .734-.063 1.365 1.365 0 0 0 .41-.24 1.112 1.112 0 0 0 .349-.566.96.96 0 0 0 0-.432Z"/><path d="M70.23 3.748h-7.548c-.701 0-1.27.496-1.27 1.107v.956h-3.54c-.7 0-1.27.495-1.27 1.107v.318c-2.063-.157-2.741-.498-4.636-1.45-1.458-.734-3.66-1.84-7.627-3.396a1.214 1.214 0 0 0-.056-.02c-1.291-.443-4.676-1.315-8.29.113l-5.109 1.595L26.578.324c-.496-.432-1.3-.432-1.795 0L10.645 12.65c-.457.399-.544 1.09 0 1.565l24.158 21.06c.387.338 1.292.44 1.795 0l12.907-11.251c.336.025.684.038 1.045.038 3.317 0 6.25-1.983 7.929-4.145h11.75c.702 0 1.27-.495 1.27-1.107V4.855c0-.611-.568-1.107-1.27-1.107ZM25.68 2.672l2.894 2.522a6.094 6.094 0 0 1-2.894.712 6.093 6.093 0 0 1-2.893-.712l2.893-2.522Zm-9.448 13.282-2.893-2.523 2.893-2.522c.532.75.817 1.617.817 2.522 0 .906-.285 1.773-.817 2.523Zm19.469 16.973-2.893-2.523c1.766-.95 4.02-.95 5.786 0L35.7 32.928Zm4.722-4.117c-2.806-1.774-6.639-1.774-9.444 0L18.06 17.549c.992-1.19 1.527-2.617 1.527-4.118 0-1.5-.535-2.928-1.527-4.117l2.897-2.525c1.363.864 3.001 1.331 4.722 1.331 1.722 0 3.36-.467 4.723-1.33l2.746 2.393a5.525 5.525 0 0 0-1.71.508c-.91.442-1.623 1.104-2.068 1.905-1.432.231-2.758.836-3.798 1.742-2.821 2.46-2.821 6.463 0 8.922 1.411 1.23 3.264 1.845 5.118 1.845 1.853 0 3.706-.615 5.117-1.845.918-.8 1.56-1.783 1.883-2.855l4.286 1.268c-.482 1.949.012 4 1.345 5.61l-2.9 2.527Zm-7.719-10.881.034.01 2.538.752c-.191.754-.625 1.448-1.264 2.004-1.831 1.597-4.812 1.597-6.643 0-1.832-1.596-1.832-4.195 0-5.792a4.79 4.79 0 0 1 1.531-.89c.235 1.7 1.639 3.216 3.804 3.916Zm12.447 6.759a4.41 4.41 0 0 1-.81-2.302 10.39 10.39 0 0 0 2.238 1.057l-1.428 1.245Zm11.452-6.32c-1.203 1.72-3.537 3.48-6.053 3.48-.47 0-.912-.03-1.325-.081l-.004-.001c-2.742-.347-4.217-1.706-4.703-2.244-.026-.033-.136-.159-.153-.18a1.239 1.239 0 0 0-.7-.507l-10.093-2.987c-1.61-.527-2.462-1.73-2.072-2.928v-.003l.002-.002c.18-.553.598-1.01 1.174-1.29a2.779 2.779 0 0 1 1.863-.195l11.375 3.142c.668.185 1.382-.138 1.593-.72.212-.583-.158-1.205-.826-1.39l-9.046-2.499-.08-.069-.002-.002L32.87 5.81l4.026-1.256.043-.015.014-.005.05-.019c2.722-1.09 5.309-.438 6.323-.094 3.832 1.503 5.877 2.531 7.371 3.283 2.078 1.044 3.079 1.547 5.906 1.75v8.915Zm4.81-.666h-2.271V8.024h2.27v9.678Zm7.547 0h-5.009V5.962h5.01v11.74Z"/></g></g><defs><clipPath id="a"><path fill="#fff" d="M0 5a5 5 0 0 1 5-5h68a5 5 0 0 1 5 5v58a5 5 0 0 1-5 5H5a5 5 0 0 1-5-5V5Z"/></clipPath><filter id="b" width="72.999" height="64.662" x="2.5" y="0" color-interpolation-filters="sRGB" filterUnits="userSpaceOnUse"><feFlood flood-opacity="0" result="BackgroundImageFix"/><feColorMatrix in="SourceAlpha" result="hardAlpha" values="0 0 0 0 0 0 0 0 0 0 0 0 0 0 0 0 0 0 127 0"/><feOffset dy="4"/><feGaussianBlur stdDeviation="2"/><feColorMatrix values="0 0 0 0 0 0 0 0 0 0 0 0 0 0 0 0 0 0 0.25 0"/><feBlend in2="BackgroundImageFix" result="effect1_dropShadow_1_312"/><feBlend in="SourceGraphic" in2="effect1_dropShadow_1_312" result="shape"/></filter></defs></svg>