<svg xmlns="http://www.w3.org/2000/svg" width="100pt" height="100pt" viewBox="0 0 100 100">
  <path d="M27.344 60.633h-4.172v6.223l4.172-.004c1.676 0 3-1.477 3-3.024-.004-1.746-1.324-3.195-3-3.195zm16.789.125h-4.148v11.195h4.148c6.75-.004 7.047-11.195 0-11.195z"/>
  <path d="M78.125 46.875H9.375A3.134 3.134 0 0 0 6.25 50v31.25a3.134 3.134 0 0 0 3.125 3.125h68.75a3.132 3.132 0 0 0 3.125-3.125V50a3.132 3.132 0 0 0-3.125-3.125zM27.344 69.977h-4.172v3.3c0 1.102-.7 1.723-1.602 1.723-.824 0-1.695-.62-1.695-1.726V59.208c0-.824.649-1.727 1.695-1.727h5.774c3.25 0 6.176 2.176 6.176 6.348-.004 3.95-2.926 6.148-6.176 6.148zM44.36 75h-5.945c-.825 0-1.727-.453-1.727-1.55V59.259c0-.899.899-1.551 1.727-1.551h5.722C55.555 57.712 55.305 75 44.36 75zm22.266-14.043h-7.273v3.973h6.37c.903 0 1.802.899 1.802 1.773 0 .825-.899 1.497-1.801 1.497h-6.371v5.246c0 .875-.621 1.55-1.496 1.55-1.102 0-1.774-.675-1.774-1.55V59.255c0-.899.68-1.551 1.774-1.551h8.773c1.102 0 1.746.648 1.746 1.55a1.728 1.728 0 0 1-1.75 1.704z"/>
  <path d="M90.625 23.707 70.043 3.125C68.238 1.312 65.063 0 62.5 0H28.125c-5.168 0-9.375 4.207-9.375 9.375v31.25a3.124 3.124 0 1 0 6.25 0V9.375a3.127 3.127 0 0 1 3.125-3.125H56.25a6.25 6.25 0 0 1 6.25 6.25v11.719c0 3.867 3.168 7.031 7.031 7.031h11.72a6.25 6.25 0 0 1 6.25 6.25v53.125a3.127 3.127 0 0 1-3.126 3.125h-56.25A3.127 3.127 0 0 1 25 90.625a3.124 3.124 0 1 0-6.25 0c0 5.168 4.207 9.375 9.375 9.375h56.25c5.168 0 9.375-4.207 9.375-9.375V31.25c0-2.558-1.312-5.734-3.125-7.543z"/>
</svg>
